<svg xmlns="http://www.w3.org/2000/svg" width="250" height="370" viewBox="0 0 250 370"><rect width="100%" height="100%" fill="#DDDDDD"/><path fill="#999999" d="M56.327 177.85h2.01v12.29h-1.17q-.27 0-.45-.09-.19-.09-.36-.3l-6.41-8.2q.05.57.05 1.04v7.55h-2.02v-12.29h1.2q.15 0 .25.01.11.01.19.05t.16.11q.07.08.17.19l6.44 8.23q-.03-.3-.04-.58-.02-.29-.02-.54v-7.47Zm8.28 3.43q.97 0 1.76.32.8.31 1.36.89.57.58.87 1.41.31.83.31 1.86 0 1.04-.31 1.87-.3.84-.87 1.42-.56.59-1.36.9-.79.32-1.76.32-.98 0-1.78-.32-.8-.31-1.36-.9-.57-.58-.88-1.42-.31-.83-.31-1.87 0-1.03.31-1.86.31-.83.88-1.41.56-.58 1.36-.89.8-.32 1.78-.32Zm0 7.37q1.09 0 1.61-.73t.52-2.14q0-1.41-.52-2.15t-1.61-.74q-1.11 0-1.64.74-.53.75-.53 2.15t.53 2.14q.53.73 1.64.73Zm10.11-7.23h2.1v8.72h-2.1v-8.72Zm2.39-2.54q0 .27-.11.51t-.29.41q-.18.18-.43.29-.25.1-.53.1-.27 0-.51-.1-.24-.11-.42-.29-.18-.17-.29-.41-.1-.24-.1-.51 0-.28.1-.53.11-.25.29-.42.18-.18.42-.29.24-.11.51-.11.28 0 .53.11t.43.29q.18.17.29.42.11.25.11.53Zm3.96 11.26h-2.1v-8.72h1.28q.41 0 .53.38l.14.65q.23-.26.48-.47.25-.21.54-.37.28-.15.61-.24.33-.09.72-.09.82 0 1.35.45.53.45.8 1.18.2-.43.51-.74.3-.31.67-.5.36-.2.78-.29.41-.1.83-.1.72 0 1.28.22t.94.65q.38.42.58 1.04.2.61.2 1.4v5.55h-2.1v-5.55q0-.83-.36-1.25-.37-.43-1.07-.43-.32 0-.6.12-.28.11-.49.31-.2.21-.32.53-.12.31-.12.72v5.55h-2.11v-5.55q0-.88-.35-1.28-.36-.4-1.04-.4-.45 0-.85.23-.39.23-.73.62v6.38Zm16.74-2.25v-1.47q-.91.04-1.53.15-.62.12-.99.3-.38.18-.54.41-.16.24-.16.52 0 .55.33.79.32.24.85.24.65 0 1.12-.23.47-.24.92-.71Zm-4.44-4.58-.37-.68q1.5-1.37 3.62-1.37.77 0 1.37.25.6.25 1.02.7.42.44.63 1.06.22.62.22 1.36v5.51h-.95q-.3 0-.46-.09-.16-.09-.26-.36l-.18-.63q-.34.3-.65.52-.31.23-.65.38t-.73.24q-.39.08-.86.08-.55 0-1.02-.15-.46-.15-.8-.45-.34-.3-.53-.74t-.19-1.03q0-.33.11-.66.11-.32.36-.62.26-.3.65-.56.4-.26.99-.46.58-.2 1.35-.32.78-.12 1.77-.15v-.51q0-.87-.37-1.29-.38-.43-1.08-.43-.51 0-.85.12-.33.12-.59.27-.25.15-.46.27-.21.12-.47.12-.22 0-.37-.12-.15-.11-.25-.26Zm11.65 2.26q.39 0 .68-.11.29-.11.48-.29.19-.19.29-.45.1-.27.1-.58 0-.65-.39-1.03-.39-.37-1.16-.37-.78 0-1.16.37-.39.38-.39 1.03 0 .3.1.57.1.26.29.45.19.19.48.3.3.11.68.11Zm2.37 4.96q0-.25-.15-.42-.16-.16-.42-.25t-.62-.13q-.35-.04-.74-.06l-.82-.04q-.42-.02-.82-.07-.35.2-.57.46-.21.26-.21.61 0 .23.11.43.12.2.37.35.25.14.65.22.4.08.98.08t1.01-.09q.42-.09.7-.24.27-.16.4-.38.13-.21.13-.47Zm-.42-8.81h2.51v.78q0 .37-.45.46l-.78.14q.18.45.18.99 0 .64-.26 1.17-.26.52-.72.88-.46.37-1.08.57-.63.2-1.35.2-.26 0-.49-.03-.24-.02-.47-.06-.41.24-.41.55 0 .26.24.39.24.12.64.17.4.05.91.06.51.02 1.05.06.53.04 1.04.15.51.1.91.33t.65.63q.24.39.24 1.01 0 .58-.29 1.13-.28.54-.82.97-.54.42-1.33.68-.78.26-1.79.26-.98 0-1.71-.19t-1.22-.51q-.48-.32-.72-.74-.24-.41-.24-.86 0-.62.37-1.03.37-.41 1.02-.66-.35-.18-.56-.47-.2-.3-.2-.79 0-.19.07-.4.07-.21.21-.41.14-.21.36-.39.21-.18.5-.33-.66-.35-1.04-.95-.38-.59-.38-1.39 0-.65.26-1.17.26-.52.72-.89.46-.37 1.1-.57.63-.19 1.38-.19.56 0 1.05.11.5.12.9.34Zm5.49 3.06h3.97q0-.41-.12-.77-.11-.36-.34-.64-.23-.27-.59-.43-.35-.15-.82-.15-.91 0-1.43.52-.52.51-.67 1.47Zm5.36 1.26h-5.4q.05.67.24 1.16.19.49.49.81.31.32.73.48.42.15.93.15t.88-.12q.37-.11.65-.26.27-.14.48-.26.21-.12.4-.12.27 0 .4.19l.6.77q-.35.41-.78.68-.44.28-.91.45-.47.16-.96.23t-.95.07q-.91 0-1.69-.3-.78-.31-1.36-.9-.58-.59-.91-1.46-.33-.87-.33-2.02 0-.89.29-1.68.29-.78.83-1.36.54-.59 1.32-.93.77-.34 1.75-.34.83 0 1.52.27.7.26 1.2.77.5.5.79 1.24.28.73.28 1.68 0 .47-.1.64-.1.16-.39.16Zm10.8 1.85v-1.47q-.91.04-1.53.15-.62.12-.99.3-.38.18-.54.41-.16.24-.16.52 0 .55.33.79t.85.24q.65 0 1.12-.23.47-.24.92-.71Zm-4.43-4.58-.38-.68q1.51-1.37 3.62-1.37.77 0 1.37.25.61.25 1.02.7.42.44.63 1.06.22.62.22 1.36v5.51h-.95q-.3 0-.46-.09-.16-.09-.25-.36l-.19-.63q-.33.3-.65.52-.31.23-.65.38t-.73.24q-.39.08-.85.08-.56 0-1.02-.15-.47-.15-.81-.45-.34-.3-.53-.74-.18-.44-.18-1.03 0-.33.11-.66.11-.32.36-.62t.65-.56q.4-.26.98-.46t1.36-.32q.77-.12 1.76-.15v-.51q0-.87-.37-1.29-.37-.43-1.08-.43-.51 0-.85.12-.33.12-.59.27-.25.15-.46.27-.21.12-.46.12-.22 0-.38-.12-.15-.11-.24-.26Zm14.66-1.89h1.66l-3.46 8.72h-1.91l-3.46-8.72h1.74q.24 0 .39.11.16.11.21.28l1.68 4.66q.14.41.24.8.1.39.18.78.09-.39.19-.78t.24-.8l1.72-4.66q.06-.17.21-.28.16-.11.37-.11Zm7.38 6.47v-1.47q-.91.04-1.53.15-.62.12-1 .3-.37.18-.53.41-.16.24-.16.52 0 .55.32.79.33.24.86.24.64 0 1.11-.23.48-.24.93-.71Zm-4.44-4.58-.37-.68q1.5-1.37 3.62-1.37.76 0 1.37.25.6.25 1.02.7.41.44.63 1.06.22.62.22 1.36v5.51h-.96q-.29 0-.46-.09-.16-.09-.25-.36l-.19-.63q-.33.3-.64.52-.32.23-.66.38t-.73.24q-.38.08-.85.08-.55 0-1.02-.15t-.81-.45q-.34-.3-.52-.74-.19-.44-.19-1.03 0-.33.11-.66.11-.32.36-.62t.65-.56q.4-.26.98-.46.59-.2 1.36-.32.77-.12 1.77-.15v-.51q0-.87-.38-1.29-.37-.43-1.08-.43-.51 0-.84.12-.34.12-.59.27l-.47.27q-.2.12-.46.12-.22 0-.37-.12-.16-.11-.25-.26Zm8.53-1.89h2.1v8.72h-2.1v-8.72Zm2.39-2.54q0 .27-.11.51t-.29.41q-.18.18-.43.29-.25.1-.53.1-.27 0-.51-.1-.24-.11-.42-.29-.18-.17-.29-.41-.1-.24-.1-.51 0-.28.1-.53.11-.25.29-.42.18-.18.42-.29.24-.11.51-.11.28 0 .53.11t.43.29q.18.17.29.42.11.25.11.53Zm1.88-1.37h2.1v12.63h-2.1v-12.63Zm8.81 10.38v-1.47q-.91.04-1.53.15-.62.12-1 .3-.37.18-.53.41-.16.24-.16.52 0 .55.32.79.33.24.86.24.64 0 1.11-.23.48-.24.93-.71Zm-4.44-4.58-.37-.68q1.5-1.37 3.62-1.37.76 0 1.37.25.6.25 1.02.7.41.44.63 1.06.22.62.22 1.36v5.51h-.96q-.29 0-.46-.09-.16-.09-.25-.36l-.19-.63q-.33.3-.64.52-.32.23-.66.38t-.73.24q-.38.08-.85.08-.55 0-1.02-.15t-.81-.45q-.34-.3-.52-.74-.19-.44-.19-1.03 0-.33.11-.66.11-.32.36-.62t.65-.56q.4-.26.98-.46.59-.2 1.36-.32.77-.12 1.77-.15v-.51q0-.87-.38-1.29-.37-.43-1.08-.43-.51 0-.84.12-.34.12-.59.27l-.47.27q-.2.12-.46.12-.22 0-.37-.12-.16-.11-.25-.26Zm10.56.66v3.91q.35.43.77.61.43.18.89.18.49 0 .87-.17.39-.18.66-.55.27-.37.42-.94.14-.58.14-1.37 0-1.44-.47-2.08-.48-.65-1.37-.65-.6 0-1.05.28-.46.28-.86.78Zm0-6.46v4.98q.52-.55 1.17-.88.64-.33 1.46-.33.76 0 1.37.3.6.3 1.03.85.43.56.66 1.35.23.79.23 1.78 0 1.06-.26 1.93-.27.86-.75 1.48-.49.62-1.18.96-.69.34-1.53.34-.41 0-.74-.08t-.61-.23q-.28-.14-.52-.35-.23-.21-.44-.46l-.1.58q-.05.22-.17.32-.12.09-.34.09h-1.38v-12.63h2.1Zm7.57 0h2.1v12.63h-2.1v-12.63Zm5.86 7.27h3.96q0-.41-.12-.77-.11-.36-.34-.64-.23-.27-.58-.43-.36-.15-.82-.15-.91 0-1.44.52-.52.51-.66 1.47Zm5.35 1.26h-5.4q.06.67.24 1.16.19.49.5.81.3.32.72.48.42.15.93.15t.88-.12q.37-.11.65-.26.27-.14.48-.26.21-.12.41-.12.26 0 .39.19l.6.77q-.35.41-.78.68-.43.28-.91.45-.47.16-.96.23t-.94.07q-.91 0-1.7-.3-.78-.31-1.36-.9-.57-.59-.91-1.46-.33-.87-.33-2.02 0-.89.29-1.68.29-.78.83-1.36.54-.59 1.32-.93.78-.34 1.75-.34.83 0 1.53.27.69.26 1.19.77.51.5.79 1.24.28.73.28 1.68 0 .47-.1.64-.1.16-.39.16Zm6.06 2.94q0-.26.1-.5t.27-.41q.17-.17.41-.27.23-.1.51-.1.27 0 .5.1.24.1.41.27.17.17.28.41.1.24.1.5 0 .28-.1.51-.11.23-.28.4-.17.17-.41.27-.23.1-.5.1-.28 0-.51-.1-.24-.1-.41-.27-.17-.17-.27-.4t-.1-.51Zm0-6.06q0-.26.1-.5t.27-.41q.17-.17.41-.27.23-.1.51-.1.27 0 .5.1.24.1.41.27.17.17.28.41.1.24.1.5 0 .28-.1.51-.11.23-.28.4-.17.17-.41.27-.23.1-.5.1-.28 0-.51-.1-.24-.1-.41-.27-.17-.17-.27-.4t-.1-.51Zm5.92 1.89q0 1.75.42 3.44.43 1.69 1.22 3.18.08.17.1.3.01.14-.02.23-.04.1-.11.17-.07.08-.16.13l-.93.57q-.63-.97-1.07-1.95-.45-.98-.73-1.97-.28-1-.41-2.02-.13-1.02-.13-2.08t.13-2.09q.13-1.02.41-2.02.28-.99.73-1.96.44-.98 1.07-1.95l.93.57q.09.05.16.12.07.07.11.17.03.1.02.23-.02.13-.1.31-.79 1.48-1.22 3.17-.42 1.7-.42 3.45Z"/></svg>